STARTFONT 2.1
FONT -Adobe-Times-Bold-R-Normal--8-80-75-75-P-47-windows-1251
SIZE 8 75 75
FONTBOUNDINGBOX 11 11 -1 -3
COMMENT $XConsortium: timB08.bdf,v 1.14 95/01/26 18:05:38 gildea Exp $
COMMENT 
COMMENT +
COMMENT  Copyright 1984-1989, 1994 Adobe Systems Incorporated.
COMMENT  Copyright 1988, 1994 Digital Equipment Corporation.
COMMENT
COMMENT  Adobe is a trademark of Adobe Systems Incorporated which may be
COMMENT  registered in certain jurisdictions.
COMMENT  Permission to use these trademarks is hereby granted only in
COMMENT  association with the images described in this file.
COMMENT
COMMENT  Permission to use, copy, modify, distribute and sell this software
COMMENT  and its documentation for any purpose and without fee is hereby
COMMENT  granted, provided that the above copyright notices appear in all
COMMENT  copies and that both those copyright notices and this permission
COMMENT  notice appear in supporting documentation, and that the names of
COMMENT  Adobe Systems and Digital Equipment Corporation not be used in
COMMENT  advertising or publicity pertaining to distribution of the software
COMMENT  without specific, written prior permission.  Adobe Systems and
COMMENT  Digital Equipment Corporation make no representations about the
COMMENT  suitability of this software for any purpose.  It is provided "as
COMMENT  is" without express or implied warranty.
COMMENT -
STARTPROPERTIES 32
FOUNDRY "Adobe"
FAMILY_NAME "Times"
WEIGHT_NAME "Bold"
SLANT "R"
SETWIDTH_NAME "Normal"
ADD_STYLE_NAME ""
PIXEL_SIZE 8
POINT_SIZE 80
RESOLUTION_X 75
RESOLUTION_Y 75
SPACING "P"
AVERAGE_WIDTH 47
CHARSET_REGISTRY "windows"
CHARSET_ENCODING "1251"
CAP_HEIGHT 5
X_HEIGHT 4
FONT_ASCENT 7
FONT_DESCENT 2
FACE_NAME "Times Bold"
COPYRIGHT "Copyright (c) 1984, 1987 Adobe Systems Incorporated. All Rights Reserved. Copyright (c) 1988, 1991 Digital Equipment Corporation. All Rights Reserved."
NOTICE "Times is a trademark of Linotype-Hell AG and/or its subsidiaries."

STARTCHAR space
ENCODING 32
SWIDTH 240 0
DWIDTH 2 0
BBX 0 0 0 0
BITMAP
ENDCHAR
STARTCHAR exclam
ENCODING 33
SWIDTH 360 0
DWIDTH 3 0
BBX 2 6 0 0
BITMAP
C0
C0
C0
C0
00
C0
ENDCHAR
STARTCHAR quotedbl
ENCODING 34
SWIDTH 480 0
DWIDTH 4 0
BBX 3 3 0 3
BITMAP
A0
A0
A0
ENDCHAR
STARTCHAR numbersign
ENCODING 35
SWIDTH 600 0
DWIDTH 5 0
BBX 5 5 -1 0
BITMAP
50
F8
50
F8
50
ENDCHAR
STARTCHAR dollar
ENCODING 36
SWIDTH 480 0
DWIDTH 4 0
BBX 4 7 -1 -1
BITMAP
20
70
C0
60
30
E0
20
ENDCHAR
STARTCHAR percent
ENCODING 37
SWIDTH 840 0
DWIDTH 7 0
BBX 5 5 0 0
BITMAP
C8
D0
20
58
98
ENDCHAR
STARTCHAR ampersand
ENCODING 38
SWIDTH 840 0
DWIDTH 7 0
BBX 6 5 0 0
BITMAP
70
C0
74
D8
6C
ENDCHAR
STARTCHAR quotesingle
ENCODING 39
SWIDTH 360 0
DWIDTH 3 0
BBX 1 3 0 2
BITMAP
80
80
80
ENDCHAR
STARTCHAR parenleft
ENCODING 40
SWIDTH 240 0
DWIDTH 2 0
BBX 2 7 -1 -1
BITMAP
40
80
80
80
80
80
40
ENDCHAR
STARTCHAR parenright
ENCODING 41
SWIDTH 360 0
DWIDTH 3 0
BBX 2 7 -1 -1
BITMAP
80
40
40
40
40
40
80
ENDCHAR
STARTCHAR asterisk
ENCODING 42
SWIDTH 600 0
DWIDTH 5 0
BBX 4 3 0 2
BITMAP
F0
60
F0
ENDCHAR
STARTCHAR plus
ENCODING 43
SWIDTH 600 0
DWIDTH 5 0
BBX 4 3 0 1
BITMAP
60
F0
60
ENDCHAR
STARTCHAR comma
ENCODING 44
SWIDTH 360 0
DWIDTH 3 0
BBX 3 3 -1 -2
BITMAP
60
60
80
ENDCHAR
STARTCHAR minus
ENCODING 45
SWIDTH 600 0
DWIDTH 5 0
BBX 4 1 0 2
BITMAP
F0
ENDCHAR
STARTCHAR period
ENCODING 46
SWIDTH 240 0
DWIDTH 2 0
BBX 2 1 -1 0
BITMAP
C0
ENDCHAR
STARTCHAR slash
ENCODING 47
SWIDTH 240 0
DWIDTH 2 0
BBX 2 7 -1 -1
BITMAP
40
40
40
C0
C0
80
80
ENDCHAR
STARTCHAR zero
ENCODING 48
SWIDTH 480 0
DWIDTH 4 0
BBX 4 5 -1 0
BITMAP
60
D0
D0
D0
60
ENDCHAR
STARTCHAR one
ENCODING 49
SWIDTH 480 0
DWIDTH 4 0
BBX 4 5 -1 0
BITMAP
E0
60
60
60
F0
ENDCHAR
STARTCHAR two
ENCODING 50
SWIDTH 480 0
DWIDTH 4 0
BBX 4 5 -1 0
BITMAP
E0
30
60
C0
F0
ENDCHAR
STARTCHAR three
ENCODING 51
SWIDTH 480 0
DWIDTH 4 0
BBX 4 5 -1 0
BITMAP
E0
30
70
30
E0
ENDCHAR
STARTCHAR four
ENCODING 52
SWIDTH 480 0
DWIDTH 4 0
BBX 4 5 -1 0
BITMAP
20
60
A0
F0
60
ENDCHAR
STARTCHAR five
ENCODING 53
SWIDTH 480 0
DWIDTH 4 0
BBX 4 5 -1 0
BITMAP
F0
C0
60
30
E0
ENDCHAR
STARTCHAR six
ENCODING 54
SWIDTH 480 0
DWIDTH 4 0
BBX 4 5 -1 0
BITMAP
70
C0
F0
D0
60
ENDCHAR
STARTCHAR seven
ENCODING 55
SWIDTH 480 0
DWIDTH 4 0
BBX 4 5 -1 0
BITMAP
F0
30
60
40
C0
ENDCHAR
STARTCHAR eight
ENCODING 56
SWIDTH 480 0
DWIDTH 4 0
BBX 4 5 -1 0
BITMAP
60
D0
60
D0
60
ENDCHAR
STARTCHAR nine
ENCODING 57
SWIDTH 480 0
DWIDTH 4 0
BBX 4 5 -1 0
BITMAP
60
B0
70
30
E0
ENDCHAR
STARTCHAR colon
ENCODING 58
SWIDTH 360 0
DWIDTH 3 0
BBX 2 3 0 0
BITMAP
C0
00
C0
ENDCHAR
STARTCHAR semicolon
ENCODING 59
SWIDTH 360 0
DWIDTH 3 0
BBX 2 5 0 -2
BITMAP
C0
00
C0
40
80
ENDCHAR
STARTCHAR less
ENCODING 60
SWIDTH 600 0
DWIDTH 5 0
BBX 4 5 0 0
BITMAP
30
60
C0
60
30
ENDCHAR
STARTCHAR equal
ENCODING 61
SWIDTH 600 0
DWIDTH 5 0
BBX 3 3 0 1
BITMAP
E0
00
E0
ENDCHAR
STARTCHAR greater
ENCODING 62
SWIDTH 600 0
DWIDTH 5 0
BBX 4 5 0 0
BITMAP
C0
60
30
60
C0
ENDCHAR
STARTCHAR question
ENCODING 63
SWIDTH 600 0
DWIDTH 5 0
BBX 4 6 0 0
BITMAP
E0
30
E0
C0
00
C0
ENDCHAR
STARTCHAR at
ENCODING 64
SWIDTH 1080 0
DWIDTH 9 0
BBX 8 7 0 -1
BITMAP
3E
61
CF
DB
CE
60
38
ENDCHAR
STARTCHAR A
ENCODING 65
SWIDTH 720 0
DWIDTH 6 0
BBX 6 5 -1 0
BITMAP
30
58
78
58
DC
ENDCHAR
STARTCHAR B
ENCODING 66
SWIDTH 720 0
DWIDTH 6 0
BBX 5 5 0 0
BITMAP
F0
D8
F0
D8
F0
ENDCHAR
STARTCHAR C
ENCODING 67
SWIDTH 720 0
DWIDTH 6 0
BBX 5 5 0 0
BITMAP
70
C8
C0
C8
70
ENDCHAR
STARTCHAR D
ENCODING 68
SWIDTH 720 0
DWIDTH 6 0
BBX 5 5 -1 0
BITMAP
F0
68
68
68
F0
ENDCHAR
STARTCHAR E
ENCODING 69
SWIDTH 720 0
DWIDTH 6 0
BBX 5 5 0 0
BITMAP
F8
60
78
60
F8
ENDCHAR
STARTCHAR F
ENCODING 70
SWIDTH 720 0
DWIDTH 6 0
BBX 5 5 0 0
BITMAP
F8
60
78
60
F0
ENDCHAR
STARTCHAR G
ENCODING 71
SWIDTH 720 0
DWIDTH 6 0
BBX 5 5 0 0
BITMAP
70
C0
D8
D8
70
ENDCHAR
STARTCHAR H
ENCODING 72
SWIDTH 840 0
DWIDTH 7 0
BBX 5 5 0 0
BITMAP
D8
D8
F8
D8
D8
ENDCHAR
STARTCHAR I
ENCODING 73
SWIDTH 480 0
DWIDTH 4 0
BBX 4 5 -1 0
BITMAP
F0
60
60
60
F0
ENDCHAR
STARTCHAR J
ENCODING 74
SWIDTH 480 0
DWIDTH 4 0
BBX 3 5 0 0
BITMAP
E0
60
60
60
C0
ENDCHAR
STARTCHAR K
ENCODING 75
SWIDTH 720 0
DWIDTH 6 0
BBX 5 5 0 0
BITMAP
D8
D0
E0
F0
D8
ENDCHAR
STARTCHAR L
ENCODING 76
SWIDTH 720 0
DWIDTH 6 0
BBX 5 5 0 0
BITMAP
E0
60
60
68
F8
ENDCHAR
STARTCHAR M
ENCODING 77
SWIDTH 960 0
DWIDTH 8 0
BBX 8 5 -1 0
BITMAP
E7
6E
7E
56
D7
ENDCHAR
STARTCHAR N
ENCODING 78
SWIDTH 720 0
DWIDTH 6 0
BBX 6 5 -1 0
BITMAP
CC
68
78
58
C8
ENDCHAR
STARTCHAR O
ENCODING 79
SWIDTH 720 0
DWIDTH 6 0
BBX 5 5 0 0
BITMAP
70
D8
D8
D8
70
ENDCHAR
STARTCHAR P
ENCODING 80
SWIDTH 600 0
DWIDTH 5 0
BBX 5 5 -1 0
BITMAP
F0
68
68
70
E0
ENDCHAR
STARTCHAR Q
ENCODING 81
SWIDTH 720 0
DWIDTH 6 0
BBX 5 7 0 -2
BITMAP
70
D8
D8
D8
70
20
10
ENDCHAR
STARTCHAR R
ENCODING 82
SWIDTH 720 0
DWIDTH 6 0
BBX 6 5 -1 0
BITMAP
F8
6C
78
68
EC
ENDCHAR
STARTCHAR S
ENCODING 83
SWIDTH 600 0
DWIDTH 5 0
BBX 5 5 -1 0
BITMAP
78
E0
70
38
F0
ENDCHAR
STARTCHAR T
ENCODING 84
SWIDTH 720 0
DWIDTH 6 0
BBX 6 5 -1 0
BITMAP
FC
B4
30
30
78
ENDCHAR
STARTCHAR U
ENCODING 85
SWIDTH 720 0
DWIDTH 6 0
BBX 5 5 0 0
BITMAP
C8
C8
C8
C8
70
ENDCHAR
STARTCHAR V
ENCODING 86
SWIDTH 720 0
DWIDTH 6 0
BBX 6 5 -1 0
BITMAP
E4
6C
68
38
10
ENDCHAR
STARTCHAR W
ENCODING 87
SWIDTH 960 0
DWIDTH 8 0
BBX 8 5 -1 0
BITMAP
EB
6A
6E
7C
24
ENDCHAR
STARTCHAR X
ENCODING 88
SWIDTH 720 0
DWIDTH 6 0
BBX 5 5 0 0
BITMAP
D8
F8
20
F8
D8
ENDCHAR
STARTCHAR Y
ENCODING 89
SWIDTH 720 0
DWIDTH 6 0
BBX 6 5 -1 0
BITMAP
CC
68
30
30
30
ENDCHAR
STARTCHAR Z
ENCODING 90
SWIDTH 720 0
DWIDTH 6 0
BBX 4 5 0 0
BITMAP
F0
30
60
C0
F0
ENDCHAR
STARTCHAR bracketleft
ENCODING 91
SWIDTH 360 0
DWIDTH 3 0
BBX 3 7 -1 -1
BITMAP
E0
C0
C0
C0
C0
C0
E0
ENDCHAR
STARTCHAR backslash
ENCODING 92
SWIDTH 240 0
DWIDTH 2 0
BBX 2 7 -1 -1
BITMAP
80
80
80
C0
C0
40
40
ENDCHAR
STARTCHAR bracketright
ENCODING 93
SWIDTH 360 0
DWIDTH 3 0
BBX 3 7 -1 -1
BITMAP
E0
60
60
60
60
60
E0
ENDCHAR
STARTCHAR asciicircum
ENCODING 94
SWIDTH 600 0
DWIDTH 5 0
BBX 5 3 -1 2
BITMAP
20
70
D8
ENDCHAR
STARTCHAR underscore
ENCODING 95
SWIDTH 480 0
DWIDTH 4 0
BBX 4 1 -1 -2
BITMAP
F0
ENDCHAR
STARTCHAR grave
ENCODING 96
SWIDTH 480 0
DWIDTH 4 0
BBX 3 2 0 5
BITMAP
C0
60
ENDCHAR
STARTCHAR a
ENCODING 97
SWIDTH 480 0
DWIDTH 4 0
BBX 3 4 0 0
BITMAP
C0
60
E0
E0
ENDCHAR
STARTCHAR b
ENCODING 98
SWIDTH 480 0
DWIDTH 4 0
BBX 3 6 0 0
BITMAP
80
80
C0
A0
A0
C0
ENDCHAR
STARTCHAR c
ENCODING 99
SWIDTH 480 0
DWIDTH 4 0
BBX 3 4 0 0
BITMAP
60
C0
C0
60
ENDCHAR
STARTCHAR d
ENCODING 100
SWIDTH 600 0
DWIDTH 5 0
BBX 3 6 0 0
BITMAP
20
20
60
A0
A0
60
ENDCHAR
STARTCHAR e
ENCODING 101
SWIDTH 480 0
DWIDTH 4 0
BBX 3 4 0 0
BITMAP
60
E0
C0
60
ENDCHAR
STARTCHAR f
ENCODING 102
SWIDTH 240 0
DWIDTH 2 0
BBX 3 6 -1 0
BITMAP
20
40
E0
40
40
40
ENDCHAR
STARTCHAR g
ENCODING 103
SWIDTH 480 0
DWIDTH 4 0
BBX 3 6 0 -2
BITMAP
60
A0
A0
60
20
C0
ENDCHAR
STARTCHAR h
ENCODING 104
SWIDTH 480 0
DWIDTH 4 0
BBX 3 6 0 0
BITMAP
80
80
C0
A0
A0
A0
ENDCHAR
STARTCHAR i
ENCODING 105
SWIDTH 240 0
DWIDTH 2 0
BBX 1 6 0 0
BITMAP
80
00
80
80
80
80
ENDCHAR
STARTCHAR j
ENCODING 106
SWIDTH 360 0
DWIDTH 3 0
BBX 2 8 0 -2
BITMAP
40
00
40
40
40
40
40
80
ENDCHAR
STARTCHAR k
ENCODING 107
SWIDTH 480 0
DWIDTH 4 0
BBX 3 6 0 0
BITMAP
80
80
A0
C0
A0
A0
ENDCHAR
STARTCHAR l
ENCODING 108
SWIDTH 240 0
DWIDTH 2 0
BBX 1 6 0 0
BITMAP
80
80
80
80
80
80
ENDCHAR
STARTCHAR m
ENCODING 109
SWIDTH 720 0
DWIDTH 6 0
BBX 6 4 0 0
BITMAP
F8
D4
D4
D4
ENDCHAR
STARTCHAR n
ENCODING 110
SWIDTH 600 0
DWIDTH 5 0
BBX 4 4 0 0
BITMAP
E0
D0
D0
D0
ENDCHAR
STARTCHAR o
ENCODING 111
SWIDTH 600 0
DWIDTH 5 0
BBX 4 4 0 0
BITMAP
60
D0
D0
60
ENDCHAR
STARTCHAR p
ENCODING 112
SWIDTH 480 0
DWIDTH 4 0
BBX 3 6 0 -2
BITMAP
C0
A0
A0
C0
80
80
ENDCHAR
STARTCHAR q
ENCODING 113
SWIDTH 480 0
DWIDTH 4 0
BBX 3 6 0 -2
BITMAP
60
A0
A0
60
20
20
ENDCHAR
STARTCHAR r
ENCODING 114
SWIDTH 360 0
DWIDTH 3 0
BBX 3 4 0 0
BITMAP
E0
80
80
80
ENDCHAR
STARTCHAR s
ENCODING 115
SWIDTH 360 0
DWIDTH 3 0
BBX 3 4 0 0
BITMAP
60
C0
60
C0
ENDCHAR
STARTCHAR t
ENCODING 116
SWIDTH 360 0
DWIDTH 3 0
BBX 3 5 -1 0
BITMAP
40
E0
40
40
20
ENDCHAR
STARTCHAR u
ENCODING 117
SWIDTH 480 0
DWIDTH 4 0
BBX 3 4 0 0
BITMAP
A0
A0
A0
60
ENDCHAR
STARTCHAR v
ENCODING 118
SWIDTH 480 0
DWIDTH 4 0
BBX 4 4 0 0
BITMAP
D0
D0
E0
40
ENDCHAR
STARTCHAR w
ENCODING 119
SWIDTH 600 0
DWIDTH 5 0
BBX 5 4 -1 0
BITMAP
88
A8
F8
50
ENDCHAR
STARTCHAR x
ENCODING 120
SWIDTH 480 0
DWIDTH 4 0
BBX 3 4 0 0
BITMAP
A0
E0
E0
A0
ENDCHAR
STARTCHAR y
ENCODING 121
SWIDTH 480 0
DWIDTH 4 0
BBX 3 6 0 -2
BITMAP
A0
A0
A0
60
20
C0
ENDCHAR
STARTCHAR z
ENCODING 122
SWIDTH 480 0
DWIDTH 4 0
BBX 3 4 0 0
BITMAP
E0
60
C0
E0
ENDCHAR
STARTCHAR braceleft
ENCODING 123
SWIDTH 360 0
DWIDTH 3 0
BBX 3 7 -1 -1
BITMAP
60
40
40
C0
40
40
60
ENDCHAR
STARTCHAR bar
ENCODING 124
SWIDTH 240 0
DWIDTH 2 0
BBX 1 7 -1 -1
BITMAP
80
80
80
80
80
80
80
ENDCHAR
STARTCHAR braceright
ENCODING 125
SWIDTH 360 0
DWIDTH 3 0
BBX 3 7 -1 -1
BITMAP
C0
40
40
60
40
40
C0
ENDCHAR
STARTCHAR asciitilde
ENCODING 126
SWIDTH 600 0
DWIDTH 5 0
BBX 5 2 -1 2
BITMAP
68
B0
ENDCHAR
STARTCHAR afii10051
ENCODING 128
SWIDTH 960 0
DWIDTH 8 0
BBX 7 7 0 -2
BITMAP
FC
B4
3C
36
36
06
0C
ENDCHAR
STARTCHAR afii10052
ENCODING 129
SWIDTH 720 0
DWIDTH 6 0
BBX 5 8 0 0
BITMAP
18
30
00
F8
68
60
60
E0
ENDCHAR
STARTCHAR quotesinglbase
ENCODING 130
SWIDTH 480 0
DWIDTH 4 0
BBX 2 3 0 -1
BITMAP
C0
C0
40
ENDCHAR
STARTCHAR afii10100
ENCODING 131
SWIDTH 360 0
DWIDTH 3 0
BBX 3 7 0 0
BITMAP
60
C0
00
E0
80
80
80
ENDCHAR
STARTCHAR quotedblbase
ENCODING 132
SWIDTH 840 0
DWIDTH 7 0
BBX 5 3 0 -1
BITMAP
D8
D8
48
ENDCHAR
STARTCHAR ellipsis
ENCODING 133
SWIDTH 1200 0
DWIDTH 10 0
BBX 8 2 0 0
BITMAP
DB
DB
ENDCHAR
STARTCHAR dagger
ENCODING 134
SWIDTH 600 0
DWIDTH 5 0
BBX 3 6 0 -1
BITMAP
40
E0
40
40
40
40
ENDCHAR
STARTCHAR daggerdbl
ENCODING 135
SWIDTH 600 0
DWIDTH 5 0
BBX 3 6 0 -1
BITMAP
40
E0
40
40
E0
40
ENDCHAR
STARTCHAR Euro
ENCODING 136
SWIDTH 720 0
DWIDTH 6 0
BBX 5 5 0 0
BITMAP
78
F0
F0
C0
78
ENDCHAR
STARTCHAR perthousand
ENCODING 137
SWIDTH 1320 0
DWIDTH 11 0
BBX 8 5 0 0
BITMAP
F8
D0
20
5B
9B
ENDCHAR
STARTCHAR afii10058
ENCODING 138
SWIDTH 960 0
DWIDTH 8 0
BBX 7 5 0 0
BITMAP
78
58
5C
5A
DC
ENDCHAR
STARTCHAR guilsinglleft
ENCODING 139
SWIDTH 480 0
DWIDTH 4 0
BBX 2 5 0 0
BITMAP
40
C0
80
C0
40
ENDCHAR
STARTCHAR afii10059
ENCODING 140
SWIDTH 960 0
DWIDTH 8 0
BBX 7 5 0 0
BITMAP
D8
D8
FC
DA
DC
ENDCHAR
STARTCHAR afii10061
ENCODING 141
SWIDTH 720 0
DWIDTH 6 0
BBX 5 8 0 0
BITMAP
18
30
00
D8
D0
E0
F0
D8
ENDCHAR
STARTCHAR afii10060
ENCODING 142
SWIDTH 960 0
DWIDTH 8 0
BBX 7 5 0 0
BITMAP
FC
B4
3C
36
36
ENDCHAR
STARTCHAR afii10145
ENCODING 143
SWIDTH 720 0
DWIDTH 6 0
BBX 5 6 0 -1
BITMAP
D8
D8
D8
D8
F8
20
ENDCHAR
STARTCHAR afii10099
ENCODING 144
SWIDTH 480 0
DWIDTH 4 0
BBX 3 8 0 -2
BITMAP
80
C0
80
C0
A0
A0
20
40
ENDCHAR
STARTCHAR quoteleft
ENCODING 145
SWIDTH 360 0
DWIDTH 3 0
BBX 2 3 0 3
BITMAP
80
C0
C0
ENDCHAR
STARTCHAR quoteright
ENCODING 146
SWIDTH 360 0
DWIDTH 3 0
BBX 2 3 0 3
BITMAP
C0
C0
40
ENDCHAR
STARTCHAR quotedblleft
ENCODING 147
SWIDTH 840 0
DWIDTH 7 0
BBX 5 3 0 2
BITMAP
90
D8
D8
ENDCHAR
STARTCHAR quotedblright
ENCODING 148
SWIDTH 840 0
DWIDTH 7 0
BBX 5 3 0 2
BITMAP
D8
D8
48
ENDCHAR
STARTCHAR bullet
ENCODING 149
SWIDTH 480 0
DWIDTH 4 0
BBX 3 4 0 1
BITMAP
40
E0
E0
40
ENDCHAR
STARTCHAR endash
ENCODING 150
SWIDTH 600 0
DWIDTH 5 0
BBX 5 1 0 2
BITMAP
F8
ENDCHAR
STARTCHAR emdash
ENCODING 151
SWIDTH 1200 0
DWIDTH 10 0
BBX 10 1 0 2
BITMAP
FFC0
ENDCHAR
STARTCHAR trademark
ENCODING 153
SWIDTH 1320 0
DWIDTH 11 0
BBX 9 3 0 2
BITMAP
ED80
4A80
4A80
ENDCHAR
STARTCHAR afii10106
ENCODING 154
SWIDTH 840 0
DWIDTH 7 0
BBX 6 4 0 0
BITMAP
70
58
54
D8
ENDCHAR
STARTCHAR guilsinglright
ENCODING 155
SWIDTH 480 0
DWIDTH 4 0
BBX 2 5 0 0
BITMAP
80
C0
40
C0
80
ENDCHAR
STARTCHAR afii10107
ENCODING 156
SWIDTH 840 0
DWIDTH 7 0
BBX 6 4 0 0
BITMAP
D0
F8
D4
D8
ENDCHAR
STARTCHAR afii10109
ENCODING 157
SWIDTH 480 0
DWIDTH 4 0
BBX 4 7 0 0
BITMAP
30
60
00
A0
C0
A0
A0
ENDCHAR
STARTCHAR afii10108
ENCODING 158
SWIDTH 480 0
DWIDTH 4 0
BBX 3 6 0 0
BITMAP
80
C0
80
C0
A0
A0
ENDCHAR
STARTCHAR afii10193
ENCODING 159
SWIDTH 600 0
DWIDTH 5 0
BBX 4 5 0 -1
BITMAP
D0
D0
D0
F0
20
ENDCHAR
STARTCHAR space
ENCODING 160
SWIDTH 240 0
DWIDTH 2 0
BBX 0 0 0 0
BITMAP
ENDCHAR
STARTCHAR afii10062
ENCODING 161
SWIDTH 720 0
DWIDTH 6 0
BBX 6 7 -1 0
BITMAP
18
00
E4
6C
38
18
70
ENDCHAR
STARTCHAR afii10110
ENCODING 162
SWIDTH 480 0
DWIDTH 4 0
BBX 3 8 0 -2
BITMAP
40
00
A0
A0
A0
60
20
C0
ENDCHAR
STARTCHAR afii10057
ENCODING 163
SWIDTH 480 0
DWIDTH 4 0
BBX 3 5 0 0
BITMAP
E0
60
60
60
C0
ENDCHAR
STARTCHAR currency
ENCODING 164
SWIDTH 600 0
DWIDTH 5 0
BBX 4 5 0 0
BITMAP
90
60
60
60
90
ENDCHAR
STARTCHAR afii10050
ENCODING 165
SWIDTH 720 0
DWIDTH 6 0
BBX 5 6 0 0
BITMAP
08
F8
60
60
60
E0
ENDCHAR
STARTCHAR brokenbar
ENCODING 166
SWIDTH 240 0
DWIDTH 2 0
BBX 1 7 -1 -1
BITMAP
80
80
80
00
80
80
80
ENDCHAR
STARTCHAR section
ENCODING 167
SWIDTH 480 0
DWIDTH 4 0
BBX 3 7 -1 -1
BITMAP
60
C0
E0
A0
E0
60
C0
ENDCHAR
STARTCHAR afii10023
ENCODING 168
SWIDTH 667 0
DWIDTH 6 0
BBX 5 8 0 0
BITMAP
48
48
00
F8
60
78
60
F8
ENDCHAR
STARTCHAR copyright
ENCODING 169
SWIDTH 840 0
DWIDTH 7 0
BBX 7 7 -1 -1
BITMAP
7C
82
BA
A2
BA
82
7C
ENDCHAR
STARTCHAR afii10053
ENCODING 170
SWIDTH 720 0
DWIDTH 6 0
BBX 5 5 0 0
BITMAP
70
C8
E0
C8
70
ENDCHAR
STARTCHAR guillemotleft
ENCODING 171
SWIDTH 600 0
DWIDTH 5 0
BBX 5 5 -1 0
BITMAP
48
D8
90
D8
48
ENDCHAR
STARTCHAR logicalnot
ENCODING 172
SWIDTH 720 0
DWIDTH 6 0
BBX 5 3 -1 0
BITMAP
F8
08
08
ENDCHAR
STARTCHAR hyphen
ENCODING 173
SWIDTH 360 0
DWIDTH 3 0
BBX 2 1 0 2
BITMAP
C0
ENDCHAR
STARTCHAR registered
ENCODING 174
SWIDTH 840 0
DWIDTH 7 0
BBX 7 7 -1 -1
BITMAP
7C
B2
AA
B2
AA
82
7C
ENDCHAR
STARTCHAR afii10056
ENCODING 175
SWIDTH 389 0
DWIDTH 4 0
BBX 4 8 -1 0
BITMAP
90
90
00
F0
60
60
60
F0
ENDCHAR
STARTCHAR degree
ENCODING 176
SWIDTH 360 0
DWIDTH 3 0
BBX 3 3 -1 2
BITMAP
40
A0
40
ENDCHAR
STARTCHAR plusminus
ENCODING 177
SWIDTH 600 0
DWIDTH 5 0
BBX 3 5 0 0
BITMAP
40
E0
40
00
E0
ENDCHAR
STARTCHAR afii10055
ENCODING 178
SWIDTH 480 0
DWIDTH 4 0
BBX 4 5 -1 0
BITMAP
F0
60
60
60
F0
ENDCHAR
STARTCHAR afii10103
ENCODING 179
SWIDTH 240 0
DWIDTH 2 0
BBX 1 6 0 0
BITMAP
80
00
80
80
80
80
ENDCHAR
STARTCHAR afii10098
ENCODING 180
SWIDTH 360 0
DWIDTH 3 0
BBX 3 5 0 0
BITMAP
20
E0
80
80
80
ENDCHAR
STARTCHAR mu
ENCODING 181
SWIDTH 480 0
DWIDTH 4 0
BBX 4 5 0 -1
BITMAP
A0
A0
A0
D0
80
ENDCHAR
STARTCHAR paragraph
ENCODING 182
SWIDTH 600 0
DWIDTH 5 0
BBX 5 7 -1 -1
BITMAP
78
D0
D0
D0
50
50
50
ENDCHAR
STARTCHAR periodcentered
ENCODING 183
SWIDTH 240 0
DWIDTH 2 0
BBX 2 2 -1 2
BITMAP
C0
C0
ENDCHAR
STARTCHAR afii10071
ENCODING 184
SWIDTH 444 0
DWIDTH 4 0
BBX 3 7 0 0
BITMAP
A0
A0
00
60
E0
C0
60
ENDCHAR
STARTCHAR afii61352
ENCODING 185
SWIDTH 960 0
DWIDTH 8 0
BBX 8 5 -1 0
BITMAP
CC
6B
7B
58
CB
ENDCHAR
STARTCHAR afii10101
ENCODING 186
SWIDTH 480 0
DWIDTH 4 0
BBX 3 4 0 0
BITMAP
60
E0
C0
60
ENDCHAR
STARTCHAR guillemotright
ENCODING 187
SWIDTH 600 0
DWIDTH 5 0
BBX 5 5 -1 0
BITMAP
90
D8
48
D8
90
ENDCHAR
STARTCHAR afii10105
ENCODING 188
SWIDTH 360 0
DWIDTH 3 0
BBX 2 8 0 -2
BITMAP
40
00
40
40
40
40
40
80
ENDCHAR
STARTCHAR afii10054
ENCODING 189
SWIDTH 600 0
DWIDTH 5 0
BBX 5 5 -1 0
BITMAP
78
E0
70
38
F0
ENDCHAR
STARTCHAR afii10102
ENCODING 190
SWIDTH 360 0
DWIDTH 3 0
BBX 3 4 0 0
BITMAP
60
C0
60
C0
ENDCHAR
STARTCHAR afii10104
ENCODING 191
SWIDTH 278 0
DWIDTH 2 0
BBX 3 7 -1 0
BITMAP
A0
A0
00
40
40
40
40
ENDCHAR
STARTCHAR afii10017
ENCODING 192
SWIDTH 720 0
DWIDTH 6 0
BBX 6 5 -1 0
BITMAP
30
58
78
58
DC
ENDCHAR
STARTCHAR afii10018
ENCODING 193
SWIDTH 720 0
DWIDTH 6 0
BBX 5 5 0 0
BITMAP
F8
C0
F0
D8
F0
ENDCHAR
STARTCHAR afii10019
ENCODING 194
SWIDTH 720 0
DWIDTH 6 0
BBX 5 5 0 0
BITMAP
F0
D8
F0
D8
F0
ENDCHAR
STARTCHAR afii10020
ENCODING 195
SWIDTH 720 0
DWIDTH 6 0
BBX 5 5 0 0
BITMAP
F8
68
60
60
E0
ENDCHAR
STARTCHAR afii10021
ENCODING 196
SWIDTH 720 0
DWIDTH 6 0
BBX 6 6 0 -1
BITMAP
78
58
58
58
FC
84
ENDCHAR
STARTCHAR afii10022
ENCODING 197
SWIDTH 720 0
DWIDTH 6 0
BBX 5 5 0 0
BITMAP
F8
60
78
60
F8
ENDCHAR
STARTCHAR afii10024
ENCODING 198
SWIDTH 960 0
DWIDTH 8 0
BBX 8 5 0 0
BITMAP
DB
5A
3C
5A
DB
ENDCHAR
STARTCHAR afii10025
ENCODING 199
SWIDTH 720 0
DWIDTH 6 0
BBX 5 5 0 0
BITMAP
70
98
30
98
70
ENDCHAR
STARTCHAR afii10026
ENCODING 200
SWIDTH 840 0
DWIDTH 7 0
BBX 6 5 0 0
BITMAP
CC
CC
DC
EC
CC
ENDCHAR
STARTCHAR afii10027
ENCODING 201
SWIDTH 840 0
DWIDTH 7 0
BBX 6 7 0 0
BITMAP
30
00
CC
CC
DC
EC
CC
ENDCHAR
STARTCHAR afii10028
ENCODING 202
SWIDTH 720 0
DWIDTH 6 0
BBX 5 5 0 0
BITMAP
D8
D0
E0
F0
D8
ENDCHAR
STARTCHAR afii10029
ENCODING 203
SWIDTH 720 0
DWIDTH 6 0
BBX 5 5 0 0
BITMAP
78
58
58
58
D8
ENDCHAR
STARTCHAR afii10030
ENCODING 204
SWIDTH 960 0
DWIDTH 8 0
BBX 8 5 -1 0
BITMAP
E7
6E
7E
56
D7
ENDCHAR
STARTCHAR afii10031
ENCODING 205
SWIDTH 720 0
DWIDTH 6 0
BBX 5 5 0 0
BITMAP
D8
D8
F8
D8
D8
ENDCHAR
STARTCHAR afii10032
ENCODING 206
SWIDTH 720 0
DWIDTH 6 0
BBX 5 5 0 0
BITMAP
70
D8
D8
D8
70
ENDCHAR
STARTCHAR afii10033
ENCODING 207
SWIDTH 720 0
DWIDTH 6 0
BBX 5 5 0 0
BITMAP
F8
D8
D8
D8
D8
ENDCHAR
STARTCHAR afii10034
ENCODING 208
SWIDTH 600 0
DWIDTH 5 0
BBX 5 5 -1 0
BITMAP
F0
68
68
70
E0
ENDCHAR
STARTCHAR afii10035
ENCODING 209
SWIDTH 720 0
DWIDTH 6 0
BBX 5 5 0 0
BITMAP
70
C8
C0
C8
70
ENDCHAR
STARTCHAR afii10036
ENCODING 210
SWIDTH 720 0
DWIDTH 6 0
BBX 6 5 -1 0
BITMAP
FC
B4
30
30
78
ENDCHAR
STARTCHAR afii10037
ENCODING 211
SWIDTH 720 0
DWIDTH 6 0
BBX 6 5 -1 0
BITMAP
E4
6C
38
18
70
ENDCHAR
STARTCHAR afii10038
ENCODING 212
SWIDTH 840 0
DWIDTH 7 0
BBX 6 5 0 0
BITMAP
78
B4
B4
78
30
ENDCHAR
STARTCHAR afii10039
ENCODING 213
SWIDTH 720 0
DWIDTH 6 0
BBX 5 5 0 0
BITMAP
D8
F8
20
F8
D8
ENDCHAR
STARTCHAR afii10040
ENCODING 214
SWIDTH 720 0
DWIDTH 6 0
BBX 6 6 0 -1
BITMAP
D8
D8
D8
D8
FC
04
ENDCHAR
STARTCHAR afii10041
ENCODING 215
SWIDTH 720 0
DWIDTH 6 0
BBX 5 5 0 0
BITMAP
D8
D8
78
18
18
ENDCHAR
STARTCHAR afii10042
ENCODING 216
SWIDTH 960 0
DWIDTH 8 0
BBX 7 5 0 0
BITMAP
D6
D6
D6
D6
FE
ENDCHAR
STARTCHAR afii10043
ENCODING 217
SWIDTH 960 0
DWIDTH 8 0
BBX 8 6 0 -1
BITMAP
D6
D6
D6
D6
FF
01
ENDCHAR
STARTCHAR afii10044
ENCODING 218
SWIDTH 720 0
DWIDTH 6 0
BBX 6 5 -1 0
BITMAP
F0
B8
34
34
78
ENDCHAR
STARTCHAR afii10045
ENCODING 219
SWIDTH 840 0
DWIDTH 7 0
BBX 7 5 -1 0
BITMAP
E6
72
6A
6A
F2
ENDCHAR
STARTCHAR afii10046
ENCODING 220
SWIDTH 600 0
DWIDTH 5 0
BBX 5 5 -1 0
BITMAP
E0
70
68
68
F0
ENDCHAR
STARTCHAR afii10047
ENCODING 221
SWIDTH 720 0
DWIDTH 6 0
BBX 5 5 0 0
BITMAP
70
98
38
98
70
ENDCHAR
STARTCHAR afii10048
ENCODING 222
SWIDTH 840 0
DWIDTH 7 0
BBX 6 5 0 0
BITMAP
98
B4
F4
B4
98
ENDCHAR
STARTCHAR afii10049
ENCODING 223
SWIDTH 720 0
DWIDTH 6 0
BBX 6 5 0 0
BITMAP
7C
D8
78
58
DC
ENDCHAR
STARTCHAR afii10065
ENCODING 224
SWIDTH 480 0
DWIDTH 4 0
BBX 3 4 0 0
BITMAP
C0
60
E0
E0
ENDCHAR
STARTCHAR afii10066
ENCODING 225
SWIDTH 600 0
DWIDTH 5 0
BBX 4 6 0 0
BITMAP
70
C0
E0
D0
D0
60
ENDCHAR
STARTCHAR afii10067
ENCODING 226
SWIDTH 480 0
DWIDTH 4 0
BBX 3 4 0 0
BITMAP
E0
C0
A0
C0
ENDCHAR
STARTCHAR afii10068
ENCODING 227
SWIDTH 360 0
DWIDTH 3 0
BBX 3 4 0 0
BITMAP
E0
80
80
80
ENDCHAR
STARTCHAR afii10069
ENCODING 228
SWIDTH 600 0
DWIDTH 5 0
BBX 4 5 0 -1
BITMAP
70
50
50
F0
90
ENDCHAR
STARTCHAR afii10070
ENCODING 229
SWIDTH 480 0
DWIDTH 4 0
BBX 3 4 0 0
BITMAP
60
E0
C0
60
ENDCHAR
STARTCHAR afii10072
ENCODING 230
SWIDTH 720 0
DWIDTH 6 0
BBX 5 4 0 0
BITMAP
A8
70
A8
A8
ENDCHAR
STARTCHAR afii10073
ENCODING 231
SWIDTH 480 0
DWIDTH 4 0
BBX 3 4 0 0
BITMAP
E0
40
20
C0
ENDCHAR
STARTCHAR afii10074
ENCODING 232
SWIDTH 480 0
DWIDTH 4 0
BBX 3 4 0 0
BITMAP
A0
E0
E0
A0
ENDCHAR
STARTCHAR afii10075
ENCODING 233
SWIDTH 480 0
DWIDTH 4 0
BBX 3 6 0 0
BITMAP
40
00
A0
E0
E0
A0
ENDCHAR
STARTCHAR afii10076
ENCODING 234
SWIDTH 480 0
DWIDTH 4 0
BBX 3 4 0 0
BITMAP
A0
C0
A0
A0
ENDCHAR
STARTCHAR afii10077
ENCODING 235
SWIDTH 600 0
DWIDTH 5 0
BBX 4 4 0 0
BITMAP
70
50
50
D0
ENDCHAR
STARTCHAR afii10078
ENCODING 236
SWIDTH 720 0
DWIDTH 6 0
BBX 5 4 0 0
BITMAP
D8
F8
A8
A8
ENDCHAR
STARTCHAR afii10079
ENCODING 237
SWIDTH 600 0
DWIDTH 5 0
BBX 4 4 0 0
BITMAP
D0
F0
D0
D0
ENDCHAR
STARTCHAR afii10080
ENCODING 238
SWIDTH 600 0
DWIDTH 5 0
BBX 4 4 0 0
BITMAP
60
D0
D0
60
ENDCHAR
STARTCHAR afii10081
ENCODING 239
SWIDTH 600 0
DWIDTH 5 0
BBX 4 4 0 0
BITMAP
F0
D0
D0
D0
ENDCHAR
STARTCHAR afii10082
ENCODING 240
SWIDTH 480 0
DWIDTH 4 0
BBX 3 6 0 -2
BITMAP
C0
A0
A0
C0
80
80
ENDCHAR
STARTCHAR afii10083
ENCODING 241
SWIDTH 480 0
DWIDTH 4 0
BBX 3 4 0 0
BITMAP
60
C0
C0
60
ENDCHAR
STARTCHAR afii10084
ENCODING 242
SWIDTH 360 0
DWIDTH 3 0
BBX 3 4 0 0
BITMAP
E0
40
40
40
ENDCHAR
STARTCHAR afii10085
ENCODING 243
SWIDTH 480 0
DWIDTH 4 0
BBX 3 6 0 -2
BITMAP
A0
A0
A0
60
20
C0
ENDCHAR
STARTCHAR afii10086
ENCODING 244
SWIDTH 720 0
DWIDTH 6 0
BBX 5 7 0 -2
BITMAP
20
70
A8
A8
70
20
20
ENDCHAR
STARTCHAR afii10087
ENCODING 245
SWIDTH 600 0
DWIDTH 5 0
BBX 4 4 0 0
BITMAP
90
60
60
90
ENDCHAR
STARTCHAR afii10088
ENCODING 246
SWIDTH 600 0
DWIDTH 5 0
BBX 4 5 0 -1
BITMAP
D0
D0
D0
F0
10
ENDCHAR
STARTCHAR afii10089
ENCODING 247
SWIDTH 480 0
DWIDTH 4 0
BBX 3 4 0 0
BITMAP
A0
A0
60
20
ENDCHAR
STARTCHAR afii10090
ENCODING 248
SWIDTH 840 0
DWIDTH 7 0
BBX 6 4 0 0
BITMAP
D4
D4
D4
FC
ENDCHAR
STARTCHAR afii10091
ENCODING 249
SWIDTH 840 0
DWIDTH 7 0
BBX 6 5 0 -1
BITMAP
D4
D4
D4
FC
04
ENDCHAR
STARTCHAR afii10092
ENCODING 250
SWIDTH 600 0
DWIDTH 5 0
BBX 4 4 0 0
BITMAP
C0
60
50
60
ENDCHAR
STARTCHAR afii10093
ENCODING 251
SWIDTH 600 0
DWIDTH 5 0
BBX 4 4 0 0
BITMAP
90
D0
B0
D0
ENDCHAR
STARTCHAR afii10094
ENCODING 252
SWIDTH 480 0
DWIDTH 4 0
BBX 3 4 0 0
BITMAP
80
C0
A0
C0
ENDCHAR
STARTCHAR afii10095
ENCODING 253
SWIDTH 480 0
DWIDTH 4 0
BBX 3 4 0 0
BITMAP
C0
E0
60
C0
ENDCHAR
STARTCHAR afii10096
ENCODING 254
SWIDTH 720 0
DWIDTH 6 0
BBX 5 4 0 0
BITMAP
B0
E8
E8
B0
ENDCHAR
STARTCHAR afii10097
ENCODING 255
SWIDTH 480 0
DWIDTH 4 0
BBX 3 4 0 0
BITMAP
60
A0
60
A0
ENDCHAR
STARTCHAR Lslash
ENCODING -1
SWIDTH 840 0
DWIDTH 7 0
BBX 5 5 0 0
BITMAP
E0
70
E0
68
F8
ENDCHAR
STARTCHAR OE
ENCODING -1
SWIDTH 1080 0
DWIDTH 9 0
BBX 7 5 0 0
BITMAP
7E
D8
DE
D8
7E
ENDCHAR
STARTCHAR Scaron
ENCODING -1
SWIDTH 720 0
DWIDTH 6 0
BBX 5 8 0 0
BITMAP
D0
60
00
78
E0
70
38
F0
ENDCHAR
STARTCHAR Ydieresis
ENCODING -1
SWIDTH 960 0
DWIDTH 8 0
BBX 8 7 0 0
BITMAP
14
00
F7
62
3C
18
3C
ENDCHAR
STARTCHAR Zcaron
ENCODING -1
SWIDTH 840 0
DWIDTH 7 0
BBX 6 8 0 0
BITMAP
28
10
00
FC
98
30
64
FC
ENDCHAR
STARTCHAR breve
ENCODING -1
SWIDTH 480 0
DWIDTH 4 0
BBX 3 2 0 5
BITMAP
A0
E0
ENDCHAR
STARTCHAR caron
ENCODING -1
SWIDTH 480 0
DWIDTH 4 0
BBX 3 2 0 5
BITMAP
A0
40
ENDCHAR
STARTCHAR circumflex
ENCODING -1
SWIDTH 600 0
DWIDTH 5 0
BBX 3 2 1 5
BITMAP
40
A0
ENDCHAR
STARTCHAR dotaccent
ENCODING -1
SWIDTH 480 0
DWIDTH 4 0
BBX 1 2 1 5
BITMAP
80
80
ENDCHAR
STARTCHAR dotlessi
ENCODING -1
SWIDTH 360 0
DWIDTH 3 0
BBX 1 4 0 0
BITMAP
80
80
80
80
ENDCHAR
STARTCHAR fi
ENCODING -1
SWIDTH 720 0
DWIDTH 6 0
BBX 5 6 0 0
BITMAP
30
40
F0
50
50
D8
ENDCHAR
STARTCHAR fl
ENCODING -1
SWIDTH 720 0
DWIDTH 6 0
BBX 5 6 0 0
BITMAP
30
50
F0
50
50
D8
ENDCHAR
STARTCHAR florin
ENCODING -1
SWIDTH 240 0
DWIDTH 2 0
BBX 3 7 -1 -1
BITMAP
20
40
E0
40
40
40
80
ENDCHAR
STARTCHAR fraction
ENCODING -1
SWIDTH 480 0
DWIDTH 4 0
BBX 3 5 0 0
BITMAP
20
20
40
80
80
ENDCHAR
STARTCHAR hungarumlaut
ENCODING -1
SWIDTH 480 0
DWIDTH 4 0
BBX 6 2 0 5
BITMAP
6C
D8
ENDCHAR
STARTCHAR lslash
ENCODING -1
SWIDTH 480 0
DWIDTH 4 0
BBX 3 6 0 0
BITMAP
C0
40
60
C0
40
40
ENDCHAR
STARTCHAR oe
ENCODING -1
SWIDTH 960 0
DWIDTH 8 0
BBX 7 4 0 0
BITMAP
7E
DE
D8
7E
ENDCHAR
STARTCHAR ogonek
ENCODING -1
SWIDTH 360 0
DWIDTH 3 0
BBX 3 3 0 -3
BITMAP
40
80
E0
ENDCHAR
STARTCHAR ring
ENCODING -1
SWIDTH 480 0
DWIDTH 4 0
BBX 3 3 0 4
BITMAP
40
A0
40
ENDCHAR
STARTCHAR scaron
ENCODING -1
SWIDTH 480 0
DWIDTH 4 0
BBX 3 7 0 0
BITMAP
A0
40
00
60
C0
60
C0
ENDCHAR
STARTCHAR tilde
ENCODING -1
SWIDTH 600 0
DWIDTH 5 0
BBX 4 2 0 5
BITMAP
50
A0
ENDCHAR
STARTCHAR zcaron
ENCODING -1
SWIDTH 600 0
DWIDTH 5 0
BBX 4 7 0 0
BITMAP
A0
40
00
F0
60
C0
F0
ENDCHAR
ENDFONT
